HIERARCHY
ROOT base
{
	OFFSET 0.0 0.0 0.0
	CHANNELS 6 Xposition Yposition Zposition Zrotation Yrotation Xrotation
	JOINT root
	{
		OFFSET 0 0 0
		CHANNELS 6 Xposition Yposition Zposition Zrotation Yrotation Xrotation
		JOINT chest
		{
			OFFSET 0 4.72302 0
			CHANNELS 3 Zrotation Yrotation Xrotation
			JOINT neck
			{
				OFFSET 0 4.47788 0
				CHANNELS 3 Zrotation Yrotation Xrotation
				End Site
				{
					OFFSET 0.0 0.0 0.0
				}
			}
			JOINT right_shoulder
			{
				OFFSET -0.481 4.87 3.6622
				CHANNELS 3 Zrotation Yrotation Xrotation
				JOINT right_elbow
				{
					OFFSET 0 -5.49576 0
					CHANNELS 3 Zrotation Yrotation Xrotation
					JOINT right_wrist
					{
						OFFSET 0 -5.17894 0
						CHANNELS 3 Zrotation Yrotation Xrotation
						End Site
						{
							OFFSET 0.0 0.0 0.0
						}
					}
				}
			}
			JOINT left_shoulder
			{
				OFFSET -0.481 4.87 -3.6622
				CHANNELS 3 Zrotation Yrotation Xrotation
				JOINT left_elbow
				{
					OFFSET 0 -5.49576 0
					CHANNELS 3 Zrotation Yrotation Xrotation
					JOINT left_wrist
					{
						OFFSET 0 -5.17894 0
						CHANNELS 3 Zrotation Yrotation Xrotation
						End Site
						{
							OFFSET 0.0 0.0 0.0
						}
					}
				}
			}
		}
		JOINT right_hip
		{
			OFFSET 0 0 1.69774
			CHANNELS 3 Zrotation Yrotation Xrotation
			JOINT right_knee
			{
				OFFSET 0 -8.43092 0
				CHANNELS 3 Zrotation Yrotation Xrotation
				JOINT right_ankle
				{
					OFFSET 0 -8.1974 0
					CHANNELS 3 Zrotation Yrotation Xrotation
					End Site
					{
						OFFSET 0.0 0.0 0.0
					}
				}
			}
		}
		JOINT left_hip
		{
			OFFSET 0 0 -1.69774
			CHANNELS 3 Zrotation Yrotation Xrotation
			JOINT left_knee
			{
				OFFSET 0 -8.43092 0
				CHANNELS 3 Zrotation Yrotation Xrotation
				JOINT left_ankle
				{
					OFFSET 0 -8.1974 0
					CHANNELS 3 Zrotation Yrotation Xrotation
					End Site
					{
						OFFSET 0.0 0.0 0.0
					}
				}
			}
		}
	}
	JOINT red_arrow
	{
		OFFSET 0 0 0
		CHANNELS 3 Zrotation Yrotation Xrotation
		End Site
		{
			OFFSET 0.0 0.0 0.0
		}
	}
	JOINT blue_arrow
	{
		OFFSET 0 0 0
		CHANNELS 3 Zrotation Yrotation Xrotation
		End Site
		{
			OFFSET 0.0 0.0 0.0
		}
	}
}
MOTION
Frames: 9
Frame Time: 0.0333333333333333
0 18.08466 0 0 0 0 0 0 0 0 -90 0 0 0 0 0 0 0 0 0 -90 0 0 0 0 0 0 0 0 90 0 0 0 0 0 0 0 0 0 0 0 0 0 0 0 0 0 0 0 0 0 0 0 0 0 0 0 0 0 0
-0.409737733751535 0 -0.0286289662122727 0 -1.26368377290971 0 0 17.9424868702889 0 -4.60057100040537 -1.54058117383389E-15 2.86397745905465 -0.757890143185307 0.240728117328744 0.990017649413787 -15.9113281778507 -4.45476051195722 1.3822019601525 12.9339549878582 -10.1452780936431 -14.1967482986303 11.1931031297263 0 0 0 0 0 10.3473364635591 -7.26918081691335 13.3912342868666 2.96771975569148 0 0 0 0 0 1.8553576630917 -1.75760295726139 -2.72022524012745 9.38245074912393E-05 0 0 -0.554205288562726 -8.55711359909781 1.7882319666575 3.00476034819722 -0.654213117105821 -1.58767511216653 0.000184553994321953 0 0 -7.28103391938022 9.59950008931496 -1.27359451266824 0 0 0 0 0 0
-0.724863311648369 0 -0.0605829808861017 0 -1.23669285939768 0 0 17.9365063428879 0 -5.53265279150555 0.510438433267455 2.39711603526007 -6.36664027719579 -0.778380822318743 2.44809169300688 -16.0392035561719 -5.98518174663409 2.69969638156004 15.2369717650614 -9.95779361534378 -28.8364581396258 0.760235432867886 0 0 0 0 0 3.36662450726574 -7.50215542205685 23.1923272130008 -4.73266243481852E-05 0 0 0 0 0 4.62086787257634 -2.26013686723285 -2.23267193194801 0.000599976767122788 0 0 -4.24541122693678 -8.6092044889203 0.640939250665549 5.2666464461673 0.550946243585311 -0.97109537650353 0.00633336419465873 0 0 -8.54688073706743 6.68509097831741 -2.50529464835998 0 0 0 0 0 0
-1.19498491287231 0 -0.137667313218117 0 -1.09405968770695 0 0 17.8204908132553 0 -8.77219923108367 2.67837610712889 2.20963424405952 -11.0733506236268 -1.45772811284917 4.30721876621242 -15.2443147113083 -8.11895310593311 4.74529745967971 13.1582407896824 -16.0301352171095 -47.2816249941477 -7.19276418005741E-05 0 0 0 0 0 -6.7119880596777 -4.53861405594375 35.1270676175716 -5.12744253041245E-06 0 0 0 0 0 9.14444118349551 -3.66120166267872 -2.62106667361506 0.000309118899693889 0 0 -2.74288449277381 -9.24552266789986 0.431012204796851 10.366414221885 1.90857137284192 -1.50691318630062 0.00304137038754045 0 0 -7.88312033556823 3.82205402559157 -1.45364359231043 0 0 0 0 0 0
-1.72515420019627 0 -0.141189662739635 0 -0.824016441871795 0 0 17.6848749756813 0 -12.0310458621648 5.01870412988269 1.12707015982065 -16.3298425163366 -1.91894071503093 7.01272112686523 -14.1709411873286 -9.18202845881177 6.68029352589363 11.6399026257409 -25.8937223164305 -63.1577896857009 -0.000690370520911546 0 0 0 0 0 -15.2135917022892 2.74614877292881 42.6567235640836 -0.000219151433460865 0 0 0 0 0 13.8002993765377 -5.31951752684135 -2.28883580992604 0.00607676686084711 0 0 -1.60698875892664 -10.0677264977117 0.010705115202391 15.6505227830004 3.1786275406761 -1.42954441526026 0.000819314207970756 0 0 -7.18346462289162 0.946372076284944 -0.572182045768129 0 0 0 0 0 0
-2.3915355861187 0 -0.114082544110715 0 -0.478278068430215 0 0 17.6612066268921 0 -16.0360825994212 6.31552119789373 0.313906185227033 -21.298830286371 -2.32328068534011 8.11208201975464 -12.7065458067532 -8.68448868908614 8.46528744290754 11.7102099752011 -36.3339871929823 -72.5589545867045 3.89304549343188E-07 0 0 0 0 0 -20.7337078661939 12.4749344479488 44.254603531512 -0.0346100359479091 0 0 0 0 0 21.4116367043759 -7.48043435119068 -2.79355028874636 -3.08083088999806 0 0 -2.37275522106072 -7.73727934641125 -0.0379675901502091 23.1326454172482 4.93403995020235 -1.7802568583494 0.000472807432642611 0 0 -12.1678916079893 -0.53774789188215 0.875248179563238 0 0 0 0 0 0
-3.1218957722187 0 -0.0427012806758285 0 -0.132007647300483 0 0 17.5845336675644 0 -20.2186334251979 6.17697145716611 -0.479634138542249 -26.0009494241139 -2.48014823722455 7.59887032787854 -10.0355546026065 -7.14336292849468 9.19875622585422 10.4879815356143 -45.2323290677681 -74.051796179541 -3.8419117107291E-05 0 0 0 0 0 -25.1514643943006 23.2306081343814 41.6814227829298 -4.81285442664652E-06 0 0 0 0 0 31.9178172455631 -8.61455902935446 -3.50185835406962 -10.9182016760116 0 0 -2.09771131185005 -4.18829400749721 0.101645846491905 32.7984966633683 6.0629603974972 -1.3639063551771 -2.65257845592509 0 0 -17.6504347893871 -1.06802363606008 1.58420902181104 0 0 0 0 0 0
-3.74961202740669 0 0.0667111307382584 0 0.216727098486507 0 0 17.3998991012573 0 -23.5838104892234 6.07685949282326 -1.62831487367533 -29.433160640296 -2.78270452582352 6.73536089375443 -6.88177425299386 -5.34572761816607 8.35675495543095 3.76944905578203 -51.6045832956152 -65.2225219153098 -6.02637353936484E-07 0 0 0 0 0 -29.1632922695099 33.6975612263219 36.8470017717535 -0.0794240410104867 0 0 0 0 0 42.4680398321401 -7.94790259063812 -3.98860774788572 -21.3663394880592 0 0 -1.6817977348122 -1.2529453849017 0.249440705949895 42.8181213762494 5.89943908187261 -0.202102973966486 -10.7421612341173 0 0 -16.9082456838323 -1.37679574534844 1.42825176816772 0 0 0 0 0 0
-4.23033563494682 0 0.1589684586972 0 0.53475013977283 0 0 17.0410318255425 0 -25.8166441232961 5.44317672897833 -2.77736882749135 -30.9060454187164 -2.57926090923618 5.75976582669292 -3.3663639851852 -3.90196620108136 5.85625083088069 -4.59304819969677 -55.2536385514823 -53.1195113687911 -0.00168417534315747 0 0 0 0 0 -32.4062290191576 43.8452631037196 30.743912689189 -8.79061508812999E-06 0 0 0 0 0 52.9540444591125 -5.90098616688096 -3.81130825101592 -34.3821067723337 0 0 -1.87358867978608 0.347186914037639 0.782356854197888 51.8231081213116 4.90620371796998 1.26774782430353 -20.9812670830322 0 0 -11.6141775588886 -0.939448112682526 1.26976780993659 0 0 0 0 0 0
